<svg width="32" height="32" viewBox="0 0 32 32" fill="none" xmlns="http://www.w3.org/2000/svg">
<path d="M25.7445 16.8447L26.9869 10.0312C27.0086 9.91419 27.0033 9.79377 26.9716 9.67907C26.9398 9.56438 26.8824 9.45841 26.8036 9.36921C26.7283 9.27712 26.6335 9.20286 26.5261 9.15179C26.4187 9.10072 26.3013 9.0741 26.1824 9.07386H9.75585L9.25684 6.33419C9.18791 5.96015 8.99033 5.62201 8.69832 5.37834C8.40632 5.13468 8.03828 5.00083 7.65798 5H5.81471C5.59863 5 5.39141 5.08584 5.23862 5.23864C5.08583 5.39144 5 5.59868 5 5.81477C5 6.03086 5.08583 6.2381 5.23862 6.3909C5.39141 6.5437 5.59863 6.62954 5.81471 6.62954H7.65798L10.4483 22.0084C10.0505 22.3588 9.75824 22.8132 9.60436 23.3206C9.45049 23.828 9.4411 24.3682 9.57726 24.8807C9.71341 25.3931 9.98972 25.8574 10.3751 26.2215C10.7606 26.5855 11.2399 26.8349 11.7592 26.9416C12.2785 27.0484 12.8173 27.0082 13.315 26.8256C13.8127 26.643 14.2497 26.3253 14.5769 25.9081C14.904 25.4909 15.1084 24.9907 15.1671 24.4637C15.2257 23.9368 15.1363 23.4039 14.9089 22.925H20.347C20.0822 23.4833 20.0059 24.1124 20.1296 24.7178C20.2532 25.3233 20.5702 25.8721 21.0327 26.2818C21.4952 26.6915 22.0782 26.9399 22.6941 26.9896C23.3099 27.0393 23.9253 26.8876 24.4475 26.5573C24.9696 26.227 25.3704 25.7361 25.5895 25.1583C25.8086 24.5806 25.8341 23.9473 25.6623 23.3538C25.4904 22.7603 25.1304 22.2386 24.6364 21.8674C24.1425 21.4962 23.5414 21.2955 22.9235 21.2954H11.9759L11.5278 18.8511H23.3411C23.9131 18.8508 24.467 18.6499 24.9061 18.2833C25.3453 17.9167 25.642 17.4076 25.7445 16.8447ZM13.5544 24.1471C13.5544 24.3888 13.4827 24.6251 13.3485 24.8261C13.2142 25.0271 13.0233 25.1838 12.8 25.2763C12.5767 25.3688 12.331 25.393 12.0939 25.3458C11.8569 25.2986 11.6391 25.1822 11.4682 25.0113C11.2973 24.8404 11.1809 24.6226 11.1338 24.3856C11.0866 24.1485 11.1108 23.9028 11.2033 23.6794C11.2958 23.4561 11.4524 23.2652 11.6534 23.1309C11.8544 22.9967 12.0907 22.925 12.3324 22.925C12.6565 22.925 12.9673 23.0537 13.1965 23.2829C13.4257 23.5121 13.5544 23.823 13.5544 24.1471ZM24.1456 24.1471C24.1456 24.3888 24.0739 24.6251 23.9396 24.8261C23.8054 25.0271 23.6145 25.1838 23.3912 25.2763C23.1679 25.3688 22.9222 25.393 22.6851 25.3458C22.4481 25.2986 22.2303 25.1822 22.0594 25.0113C21.8885 24.8404 21.7721 24.6226 21.725 24.3856C21.6778 24.1485 21.702 23.9028 21.7945 23.6794C21.887 23.4561 22.0436 23.2652 22.2446 23.1309C22.4456 22.9967 22.6818 22.925 22.9235 22.925C23.2476 22.925 23.5585 23.0537 23.7877 23.2829C24.0168 23.5121 24.1456 23.823 24.1456 24.1471ZM10.0512 10.7034H25.2047L24.1456 16.5494C24.112 16.7382 24.013 16.9091 23.8658 17.0321C23.7186 17.155 23.5328 17.2221 23.3411 17.2216H11.2325L10.0512 10.7034Z" fill="black"/>
</svg>
