<svg width="32" height="32" viewBox="0 0 32 32" fill="none" xmlns="http://www.w3.org/2000/svg">
<path d="M18.9511 8.51028L18.9511 8.51016C18.7296 7.11441 17.6984 6.02436 16.5328 5.80126C14.7177 5.45384 13 6.97723 13 9.1248C13 9.63241 13.1016 10.1086 13.2808 10.5348L13.2809 10.5351C13.8201 11.8186 14.25 13.2246 14.25 14.7319V14.7349C14.25 15.7789 13.465 16.7499 12.35 16.7499H9.75C8.15879 16.7499 6.75 18.192 6.75 20.1249V21.4999C6.75 21.9139 7.03965 22.125 7.25 22.125H24.75C24.9603 22.125 25.25 21.9139 25.25 21.4999V20.1249C25.25 18.192 23.8412 16.7499 22.25 16.7499H19.65C18.535 16.7499 17.75 15.7789 17.75 14.7349V14.3284C17.75 13.0047 18.1402 11.7737 18.6596 10.6696L18.9511 8.51028ZM18.9511 8.51028C19.0776 9.30651 18.9522 10.0473 18.6596 10.6695L18.9511 8.51028ZM24 25V26.25H8V25H24Z" stroke="black" stroke-width="1.5"/>
</svg>
