<svg width="32" height="32" viewBox="0 0 32 32" fill="none" xmlns="http://www.w3.org/2000/svg">
<path d="M27.2836 16.1516L17.0546 5.92792L16.369 5.24229C16.2128 5.0871 16.0015 5 15.7813 5C15.5611 5 15.3498 5.0871 15.1936 5.24229L4.27904 16.1516C4.11897 16.311 3.99245 16.5009 3.90698 16.7101C3.8215 16.9192 3.77879 17.1434 3.78136 17.3693C3.79195 18.3011 4.56759 19.045 5.49942 19.045H6.6245V27.6671H24.9381V19.045H26.087C26.5397 19.045 26.9659 18.8676 27.2862 18.5473C27.4439 18.3901 27.5689 18.2032 27.6539 17.9973C27.7388 17.7915 27.7821 17.5708 27.7812 17.3481C27.7812 16.8981 27.6039 16.4719 27.2836 16.1516ZM17.2638 25.761H14.2988V20.3607H17.2638V25.761ZM23.0321 17.139V25.761H18.958V19.7253C18.958 19.1403 18.4841 18.6664 17.8991 18.6664H13.6635C13.0785 18.6664 12.6046 19.1403 12.6046 19.7253V25.761H8.53051V17.139H5.98916L15.7839 7.35214L16.3955 7.96365L25.5761 17.139H23.0321Z" fill="black"/>
</svg>
