<svg width="20" height="20" viewBox="0 0 20 20" fill="none" xmlns="http://www.w3.org/2000/svg">
<g clip-path="url(#clip0_488_15277)">
<path d="M10.1539 18.3334H2.53845C2.07136 18.3334 1.69231 17.96 1.69231 17.5001V2.50002C1.69231 2.04002 2.0714 1.66671 2.53845 1.66671H10.1539C10.6218 1.66671 11 1.29422 11 0.833394C11 0.372566 10.6218 0 10.1539 0H2.53845C1.13891 0 0 1.1217 0 2.50002V17.5C0 18.8783 1.13891 20 2.53845 20H10.1539C10.6218 20 11 19.6275 11 19.1667C11 18.7059 10.6218 18.3334 10.1539 18.3334Z" fill="#FBC339"/>
<path d="M19.7591 9.38969L14.8437 4.24677C14.5267 3.91419 14.0142 3.9185 13.7005 4.25536C13.3868 4.59221 13.39 5.13478 13.7086 5.46736L17.2213 9.14281H7.80844C7.36137 9.14281 7 9.52595 7 9.99995C7 10.4739 7.36137 10.8571 7.80844 10.8571H17.2213L13.7086 14.5326C13.3901 14.8652 13.3876 15.4077 13.7005 15.7446C13.8589 15.9143 14.0675 16 14.2761 16C14.4815 16 14.6868 15.9177 14.8437 15.7531L19.7591 10.6102C19.9127 10.4491 20 10.2296 20 9.99991C20 9.77028 19.9135 9.55171 19.7591 9.38969Z" fill="#FBC339"/>
</g>
<defs>
<clipPath id="clip0_488_15277">
<rect width="20" height="20" fill="white"/>
</clipPath>
</defs>
</svg>
