<svg width="24" height="24" viewBox="0 0 24 24" fill="none" stroke="currentColor" xmlns="http://www.w3.org/2000/svg">
<path d="M9.96209 3.77149C10.0403 2.64145 11.1074 1.76764 12.2574 2.05529L12.5714 2.13505C13.1284 2.27525 13.6228 2.68617 13.7888 3.30135C14.0535 4.28756 14.43 6.33613 13.8634 8.75211C14.0406 8.72752 14.2183 8.70697 14.3964 8.69047C15.2541 8.61191 16.4042 8.60345 17.4231 8.94427C18.0463 9.15336 18.6189 9.76732 18.8667 10.4828C19.0881 11.1258 19.0592 11.8872 18.5852 12.5773C18.655 12.7211 18.7091 12.8698 18.7512 13.016C18.8439 13.3423 18.8872 13.7013 18.8872 14.0506C18.8872 14.3999 18.8439 14.7588 18.7512 15.0851C18.7043 15.2483 18.643 15.4151 18.5588 15.5734C18.7621 16.0411 18.6875 16.5632 18.5551 16.9609C18.4197 17.3535 18.2214 17.7213 17.9681 18.0498C18.033 18.2335 18.0595 18.4269 18.0595 18.6118C18.0595 18.9804 17.9524 19.3672 17.7552 19.7141C17.3533 20.4223 16.5558 21 15.4285 21H11.218C10.4902 21 9.93081 20.9021 9.45442 20.7365C9.04479 20.5862 8.65335 20.39 8.28751 20.1516L8.22976 20.1153C7.62345 19.7443 7.02796 19.3793 5.74195 19.2427C4.82045 19.1436 4 18.3967 4 17.3742V12.5398C4 11.5125 4.82406 10.8091 5.63248 10.588C6.65383 10.3076 7.52601 9.6368 8.19728 8.88384C8.87096 8.12605 9.29683 7.33684 9.4472 6.90296C9.6866 6.20802 9.87547 5.04293 9.96209 3.7727V3.77149Z" stroke-width="2"/>
</svg>
