<svg width="20" height="20" viewBox="0 0 20 20" fill="none" xmlns="http://www.w3.org/2000/svg">
<path d="M17.1154 2H2.88461C1.29402 2 0 3.33014 0 4.96511V16.0349C0 17.6699 1.29402 19 2.88461 19H17.1154C18.706 19 20 17.6699 20 16.0349V4.96511C20 3.33014 18.706 2 17.1154 2ZM18.7529 12.1486H14.6154C13.6611 12.1486 13 11.481 13 10.5C13 9.51899 13.661 8.79958 14.6154 8.79958H18.7529V12.1486ZM18.7529 7.53489H14.6154C13.0248 7.53489 11.7308 8.86502 11.7308 10.5C11.7308 12.135 13.0248 13.4651 14.6154 13.4651H18.7529V16.0349C18.7529 17.0159 18.0698 17.6953 17.1154 17.6953H2.88461C1.93027 17.6953 1.29231 17.0159 1.29231 16.0349V4.96511C1.29231 3.98414 1.93023 3.30458 2.88461 3.30458H17.1266C18.0809 3.30458 18.7529 3.9841 18.7529 4.96511V7.53489Z" fill="#FBC339"/>
<path d="M15.4 9H14.6C14.2686 9 14 9.22388 14 9.5C14 9.77615 14.2687 10 14.6 10H15.4C15.7314 10 16 9.77612 16 9.5C16 9.22385 15.7314 9 15.4 9Z" fill="#FBC339"/>
</svg>
