<svg width="32" height="32" viewBox="0 0 32 32" fill="none" xmlns="http://www.w3.org/2000/svg">
<path d="M10.8913 24C10.4241 24 10.0191 23.6764 9.91597 23.2207L8.88403 18.6603C8.78091 18.2045 8.37594 17.881 7.90869 17.881H6.7619C6.34112 17.881 6 17.5398 6 17.119C6 16.6983 6.34112 16.3571 6.7619 16.3571H7.12341C7.74732 16.3571 8.2111 15.7799 8.07667 15.1706C7.97797 14.7233 7.5815 14.4048 7.12341 14.4048H6.7619C6.34112 14.4048 6 14.0636 6 13.6429V13.5784C6 13.1932 6.31226 12.881 6.69744 12.881C7.14438 12.881 7.47598 12.4665 7.37788 12.0304L6.52051 8.21949C6.37986 7.59429 6.8553 7 7.49613 7H7.89114C8.36635 7 8.77594 7.33445 8.87095 7.80007L9.74444 12.0809C9.83945 12.5465 10.249 12.881 10.7242 12.881H12.4121C12.8743 12.881 13.2762 12.5643 13.3844 12.1149L14.431 7.76601C14.5392 7.31669 14.9411 7 15.4033 7H16.6623C17.1226 7 17.5234 7.31422 17.6333 7.76121L18.7051 12.1197C18.815 12.5667 19.2159 12.881 19.6762 12.881H21.3596C21.8386 12.881 22.2504 12.5413 22.3414 12.071L23.1663 7.80994C23.2573 7.33967 23.6691 7 24.1481 7H24.5166C25.1533 7 25.6279 7.58717 25.4943 8.20974L24.6672 12.0657C24.5772 12.4853 24.897 12.881 25.3261 12.881C25.6983 12.881 26 13.1827 26 13.5549V13.6429C26 14.0636 25.6589 14.4048 25.2381 14.4048H24.9503C24.4867 14.4048 24.087 14.7308 23.994 15.185C23.87 15.7903 24.3324 16.3571 24.9503 16.3571H25.2381C25.6589 16.3571 26 16.6983 26 17.119C26 17.5398 25.6589 17.881 25.2381 17.881H24.2262C23.7536 17.881 23.3455 18.2119 23.2478 18.6743L22.2906 23.2066C22.193 23.6691 21.7849 24 21.3122 24H20.1412C19.6793 24 19.2775 23.6836 19.1691 23.2346L18.0617 18.6463C17.9533 18.1973 17.5515 17.881 17.0896 17.881H15.0144C14.5471 17.881 14.1422 18.2045 14.039 18.6603L13.0071 23.2207C12.904 23.6764 12.499 24 12.0318 24H10.8913ZM15.4798 12.2031C15.4143 12.5556 15.6848 12.881 16.0433 12.881C16.4037 12.881 16.6746 12.5523 16.6059 12.1985C16.4852 11.5775 15.5954 11.5811 15.4798 12.2031ZM10.4651 15.5624C10.5523 16.0234 10.9551 16.3571 11.4243 16.3571H11.6527C12.1218 16.3571 12.5247 16.0234 12.6118 15.5624C12.7255 14.9612 12.2645 14.4048 11.6527 14.4048H11.4243C10.8124 14.4048 10.3514 14.9612 10.4651 15.5624ZM14.8464 15.1706C14.712 15.7799 15.1758 16.3571 15.7997 16.3571H16.3112C16.9291 16.3571 17.3916 15.7903 17.2676 15.185C17.1745 14.7308 16.7748 14.4048 16.3112 14.4048H15.7997C15.3416 14.4048 14.9451 14.7233 14.8464 15.1706ZM19.5233 15.5913C19.622 16.0386 20.0185 16.3571 20.4766 16.3571H20.7477C21.2225 16.3571 21.6285 16.0155 21.7096 15.5477C21.813 14.9508 21.3535 14.4048 20.7477 14.4048H20.4766C19.8527 14.4048 19.3889 14.982 19.5233 15.5913ZM10.9689 18.4998C11.0698 19.0815 11.9038 19.085 12.0096 18.5042C12.0687 18.1797 11.8194 17.881 11.4896 17.881C11.1616 17.881 10.9128 18.1766 10.9689 18.4998ZM20.164 18.4877C20.2617 19.0658 21.0922 19.0658 21.1898 18.4877C21.2434 18.1704 20.9988 17.881 20.6769 17.881C20.355 17.881 20.1104 18.1704 20.164 18.4877Z" fill="black"/>
</svg>
