<svg width="32" height="32" viewBox="0 0 32 32" fill="none" xmlns="http://www.w3.org/2000/svg">
<path d="M15.7812 4C20.0067 4 22.4037 6.88448 22.7517 10.369H22.8567C25.5792 10.369 27.7812 12.637 27.7812 15.4344C27.7812 15.5034 27.7812 15.5739 27.7767 15.6414C27.323 15.2364 26.7918 14.9277 26.2152 14.7339C25.9017 13.0944 24.5112 11.869 22.8582 11.869H22.7517C22.3799 11.869 22.0213 11.7308 21.7455 11.4814C21.4697 11.2319 21.2964 10.889 21.2592 10.519C20.9562 7.48748 18.9447 5.49999 15.7812 5.49999C12.6102 5.49999 10.6077 7.47398 10.3032 10.5175C10.2664 10.8877 10.0933 11.2311 9.81745 11.4808C9.54164 11.7306 9.18284 11.8689 8.81075 11.869H8.70575C6.82175 11.869 5.28125 13.4559 5.28125 15.4344C5.28125 17.4144 6.82325 18.9999 8.70425 18.9999H17.6127C17.3742 19.3164 17.1852 19.6749 17.0547 20.0649L16.9092 20.4999H8.70425C5.98475 20.4999 3.78125 18.2319 3.78125 15.4344C3.78125 12.7299 5.84075 10.5205 8.43425 10.3765L8.81075 10.369C9.16175 6.86198 11.5557 4 15.7812 4ZM26.1702 16.3404C26.6571 16.593 27.065 16.9749 27.3491 17.444C27.6333 17.9131 27.7828 18.4514 27.7812 18.9999C27.7812 19.6603 27.5633 20.3022 27.1613 20.8261C26.7592 21.35 26.1956 21.7266 25.5577 21.8975C24.9198 22.0685 24.2434 22.0241 23.6333 21.7714C23.0231 21.5187 22.5135 21.0718 22.1832 20.4999H20.6112C20.4536 20.4997 20.3 20.5492 20.1721 20.6413C20.0442 20.7333 19.9485 20.8634 19.8987 21.0129L19.0827 23.4609C18.9337 23.9085 18.6477 24.2979 18.2652 24.5741C17.8827 24.8503 17.423 24.9992 16.9512 24.9999H15.7812C15.7813 25.7277 15.5167 26.4307 15.0369 26.9779C14.557 27.5252 13.8946 27.8793 13.173 27.9743C12.4514 28.0693 11.7198 27.8988 11.1147 27.4945C10.5095 27.0902 10.0719 26.4796 9.88351 25.7766C9.6951 25.0736 9.76869 24.3261 10.0906 23.6733C10.4124 23.0205 10.9607 22.507 11.6331 22.2284C12.3055 21.9499 13.0562 21.9253 13.7454 22.1592C14.4346 22.3931 15.0153 22.8696 15.3792 23.4999H16.9497C17.1073 23.5001 17.261 23.4506 17.3889 23.3585C17.5168 23.2665 17.6124 23.1364 17.6622 22.9869L18.4782 20.5389L18.4902 20.4999C18.6453 20.0613 18.9326 19.6815 19.3124 19.4129C19.6922 19.1443 20.146 19 20.6112 18.9999H21.7812C21.7812 18.484 21.9141 17.9768 22.1673 17.5273C22.4205 17.0778 22.7853 16.7011 23.2265 16.4338C23.6678 16.1664 24.1705 16.0174 24.6861 16.001C25.2018 15.9847 25.713 16.1016 26.1702 16.3404ZM25.5102 17.6889C25.2839 17.563 25.0288 17.4978 24.7698 17.4998C24.5108 17.5017 24.2567 17.5707 24.0323 17.7C23.8078 17.8292 23.6207 18.0144 23.4891 18.2375C23.3575 18.4606 23.2859 18.7139 23.2812 18.9729V18.9999C23.2787 19.3977 23.4342 19.7803 23.7137 20.0634C23.9932 20.3466 24.3737 20.5071 24.7715 20.5097C25.1693 20.5122 25.5519 20.3567 25.835 20.0772C26.1181 19.7977 26.2787 19.4172 26.2812 19.0194V18.9999C26.2812 18.7325 26.2098 18.47 26.0742 18.2395C25.9387 18.009 25.7439 17.8189 25.5102 17.6889ZM14.2812 24.9999C14.2812 24.6021 14.1232 24.2205 13.8419 23.9392C13.5606 23.6579 13.1791 23.4999 12.7812 23.4999C12.3834 23.4999 12.0019 23.6579 11.7206 23.9392C11.4393 24.2205 11.2812 24.6021 11.2812 24.9999C11.2812 25.3977 11.4393 25.7792 11.7206 26.0605C12.0019 26.3418 12.3834 26.4999 12.7812 26.4999C13.1791 26.4999 13.5606 26.3418 13.8419 26.0605C14.1232 25.7792 14.2812 25.3977 14.2812 24.9999Z" fill="black" stroke="black" stroke-width="0.5"/>
</svg>
