<svg width="18" height="22" viewBox="0 0 18 22" fill="none" xmlns="http://www.w3.org/2000/svg">
<g clip-path="url(#clip0_1_21745)">
<path d="M4 10.7578H6V12.7578H4V10.7578ZM18 4.75781V18.7578C18 19.8678 17.11 20.7578 16 20.7578H2C1.46957 20.7578 0.960859 20.5471 0.585786 20.172C0.210714 19.797 0 19.2882 0 18.7578V4.75781C0 3.65781 0.9 2.75781 2 2.75781H3V0.757812H5V2.75781H13V0.757812H15V2.75781H16C16.5304 2.75781 17.0391 2.96853 17.4142 3.3436C17.7893 3.71867 18 4.22738 18 4.75781ZM2 6.75781H16V4.75781H2V6.75781ZM16 18.7578V8.75781H2V18.7578H16ZM12 12.7578V10.7578H14V12.7578H12ZM8 12.7578V10.7578H10V12.7578H8ZM4 14.7578H6V16.7578H4V14.7578ZM12 16.7578V14.7578H14V16.7578H12ZM8 16.7578V14.7578H10V16.7578H8Z" fill="#CCCCCC"/>
</g>
<defs>
<clipPath id="clip0_1_21745">
<rect width="18" height="21" fill="white" transform="translate(0 0.632812)"/>
</clipPath>
</defs>
</svg>
