<svg width="32" height="37" viewBox="0 0 32 37" fill="none" xmlns="http://www.w3.org/2000/svg">
<path d="M25.707 28.181C25.8947 28.3941 26 28.6818 26 28.9817C26 29.2815 25.8947 29.5693 25.707 29.7823C25.516 29.99 25.2607 30.1061 24.9949 30.1061C24.7292 30.1061 24.4739 29.99 24.2828 29.7823L16 20.4553L7.71716 29.7823C7.52613 29.99 7.27079 30.1061 7.00506 30.1061C6.73933 30.1061 6.48399 29.99 6.29296 29.7823C6.10528 29.5693 6 29.2815 6 28.9817C6 28.6818 6.10528 28.3941 6.29296 28.181L14.5883 18.868L6.29296 9.55494C6.13359 9.3366 6.05214 9.05941 6.06446 8.77729C6.07679 8.49517 6.182 8.22829 6.35963 8.02856C6.53727 7.82884 6.77463 7.71054 7.02554 7.69668C7.27645 7.68283 7.52297 7.7744 7.71716 7.9536L16 17.2807L24.2828 7.9536C24.477 7.7744 24.7236 7.68283 24.9745 7.69668C25.2254 7.71054 25.4627 7.82884 25.6404 8.02856C25.818 8.22829 25.9232 8.49517 25.9355 8.77729C25.9479 9.05941 25.8664 9.3366 25.707 9.55494L17.4117 18.868L25.707 28.181Z" fill="#232323"/>
</svg>
