<svg width="16" height="21" viewBox="0 0 16 21" fill="none" xmlns="http://www.w3.org/2000/svg">
<path d="M10.0008 16.6327C10.266 16.6327 10.5204 16.5274 10.7079 16.3398C10.8954 16.1523 11.0008 15.8979 11.0008 15.6327L11.0008 4.04271L13.2908 6.34271C13.4791 6.53101 13.7345 6.6368 14.0008 6.6368C14.2671 6.6368 14.5225 6.53101 14.7108 6.34271C14.8991 6.1544 15.0049 5.89901 15.0049 5.63271C15.0049 5.36641 14.8991 5.11101 14.7108 4.92271L10.7108 0.922708C10.5702 0.78395 10.3916 0.689954 10.1976 0.65258C10.0036 0.615205 9.8029 0.636128 9.62079 0.712708C9.43817 0.787728 9.28185 0.915126 9.17151 1.07885C9.06118 1.24257 9.00178 1.43528 9.00079 1.63271L9.00079 15.6327C9.00079 15.8979 9.10615 16.1523 9.29368 16.3398C9.48122 16.5274 9.73557 16.6327 10.0008 16.6327ZM6.38079 20.5527C6.56341 20.4777 6.71974 20.3503 6.83007 20.1866C6.9404 20.0228 6.99981 19.8301 7.00079 19.6327L7.00079 5.63271C7.00079 5.36749 6.89543 5.11314 6.7079 4.9256C6.52036 4.73806 6.26601 4.63271 6.00079 4.63271C5.73557 4.63271 5.48122 4.73806 5.29368 4.9256C5.10615 5.11314 5.00079 5.36749 5.00079 5.63271L5.00079 17.2227L2.71079 14.9227C2.61783 14.829 2.50723 14.7546 2.38537 14.7038C2.26351 14.653 2.1328 14.6269 2.00079 14.6269C1.86878 14.6269 1.73807 14.653 1.61621 14.7038C1.49435 14.7546 1.38376 14.829 1.29079 14.9227C1.19706 15.0157 1.12267 15.1263 1.0719 15.2481C1.02113 15.37 0.994993 15.5007 0.994993 15.6327C0.994993 15.7647 1.02113 15.8954 1.0719 16.0173C1.12267 16.1391 1.19706 16.2497 1.29079 16.3427L5.29079 20.3427C5.43141 20.4815 5.60999 20.5755 5.80398 20.6128C5.99797 20.6502 6.19868 20.6293 6.38079 20.5527Z" fill="#909090"/>
</svg>
