<svg width="32" height="32" viewBox="0 0 32 32" fill="none" xmlns="http://www.w3.org/2000/svg">
<path d="M15.9984 27.5547L15.6013 28.0693C15.8353 28.2498 16.1615 28.2498 16.3954 28.0693L15.9984 27.5547ZM15.9984 27.5547C16.3954 28.0693 16.3956 28.0692 16.3958 28.0691L16.3963 28.0686L16.3982 28.0672L16.4043 28.0624L16.4265 28.0451C16.4456 28.0301 16.4733 28.0082 16.509 27.9797C16.5804 27.9226 16.6839 27.8388 16.8149 27.73C17.0767 27.5123 17.4488 27.1942 17.8944 26.7884C18.7846 25.9776 19.9727 24.813 21.1625 23.398C23.52 20.5943 25.9817 16.6931 25.9817 12.5547C25.9817 7.20304 21.4895 2.90469 15.9984 2.90469C10.5072 2.90469 6.01504 7.20304 6.01504 12.5547C6.01504 16.6931 8.47671 20.5943 10.8342 23.398C12.024 24.813 13.2121 25.9776 14.1024 26.7884C14.5479 27.1942 14.92 27.5123 15.1819 27.73C15.3128 27.8388 15.4163 27.9226 15.4877 27.9797C15.5234 28.0082 15.5511 28.0301 15.5703 28.0451L15.5925 28.0624L15.5986 28.0672L15.6004 28.0686L15.601 28.0691C15.6012 28.0692 15.6013 28.0693 15.9984 27.5547Z" fill="white" stroke="#FFC73C" stroke-width="1.3" stroke-linejoin="round"/>
<path d="M16 17.318C18.5681 17.318 20.65 15.2361 20.65 12.668C20.65 10.0999 18.5681 8.01797 16 8.01797C13.4319 8.01797 11.35 10.0998 11.35 12.668C11.35 15.2361 13.4319 17.318 16 17.318Z" fill="white" stroke="#FFC73C" stroke-width="1.3" stroke-linejoin="round"/>
</svg>
